# xmcd
#
# Track frame offsets:
#	150
#	14839
#	29277
#	41919
#	55889
#	68979
#	84256
#	98693
#	111244
#	124031
#	139689
#	154004
#	169874
#	183799
#	196445
#	209031
#	223199
#	235240
#	250133
#	262658
#	277043
#	290751
#	303463
#	316955
#	329187
#
# Disc length: 4564 seconds
#
# Revision: 0
# Processed by: cddbd v1.5.2PL0 Copyright (c) Steve Scherf et al.
# Submitted via: dBpowerAMP V4.0
#
DISCID=8011d219
DTITLE=Various Artist - The Story Of The Pre-War Blues disc4 City Blues,Hokum,Jive and All That Jazz
DYEAR=1900
DGENRE=Blues
TTITLE0=Pine Top Smith - Pine Top Boogie Woogie
TTITLE1=Papa Charlie Jackson - You Put It In,I'll Take It Out
TTITLE2=Tampa Red's Hokum Jug Band - It's Tight Like That
TTITLE3=Leroy Carr - How Long Blues
TTITLE4=Blind Blake - Southern Rag
TTITLE5=Charlie Spand - Back To The Woods Blues
TTITLE6=Ma Rainey - "Ma" Rainey's Black Bottom
TTITLE7=Crippie Clarence Lofton - I Don't Know
TTITLE8=Big Bill Broonzy - Long Tall Mama
TTITLE9=Big Boy Teddy Edwards - I'm Gonna Tell My Mama On You
TTITLE10=The Pods Of Pepper - You've Had Your Way
TTITLE11=Washboad Rhythm Kings - Under Meath The Harlem Moon
TTITLE12=State Street Swingers - Oh Red!
TTITLE13=The Cats and The Fiddle - Chant Of The Rain
TTITLE14=The Golden Gate Jubilee Quartet - Standing By The Bedside Of A Neghbor
TTITLE15=Teddy Bunn And Spencer Williams - The Chickin And The Worm
TTITLE16=Lonnie Johnson - Got The Blues For The West End
TTITLE17=Speckled Red - The Dirty Dozen
TTITLE18=Walter Davis - I Can Tell By The Way You Smell
TTITLE19=Peetie Wheatstraw - More Good whisky Blues
TTITLE20=Charley Jordan - Two Street Blues
TTITLE21=Charley Jordan - Two Street Blues
TTITLE22=Kokomo Arnold - Mean Old Twister
TTITLE23=Sonny Boy Williamson - Bad Luck Blues
TTITLE24=Big Maceo - Chicago Breakdown
EXTD=
EXTT0=
EXTT1=
EXTT2=
EXTT3=
EXTT4=
EXTT5=
EXTT6=
EXTT7=
EXTT8=
EXTT9=
EXTT10=
EXTT11=
EXTT12=
EXTT13=
EXTT14=
EXTT15=
EXTT16=
EXTT17=
EXTT18=
EXTT19=
EXTT20=
EXTT21=
EXTT22=
EXTT23=
EXTT24=
PLAYORDER=
